<svg height="48" viewBox="0 0 48 48" width="48" xmlns="http://www.w3.org/2000/svg"><g transform="translate(-174 -59.099319)"><path d="m192.2832 66.572266-.64062.01563-5.58594.142578.0918 4.789063.0273.09375s.8583 2.607308 3.4375 5.162109l-1.70703 16.632813c-3.68344 2.423744-3.79687 6.535151-3.79687 6.535151v.75h27.78124v-.75s-.11343-4.111407-3.79687-6.535151l-1.70703-16.632813c2.5792-2.554801 3.4375-5.162109 3.4375-5.162109l.0273-.09375.0918-4.789063-6.22656-.158203-.67969 3.660156-1.74219-.109375-.15625-3.498047h-6.27734l-.1543 3.498047-1.74414.109375z" stroke-linecap="round" stroke-width="1.5"/><path d="m189.21782 93.774801h17.56435" fill="#0f0" stroke-width="1.5"/><g fill="#fff"><path d="m189.60742 91.503906-.15234 1.5h17.07226l-.18945-1.5z"/><path d="m191.01953 77.75-.1543 1.5h13.93555l-.1875-1.5z"/></g></g></svg>