<svg height="48" viewBox="0 0 48 48" width="48" xmlns="http://www.w3.org/2000/svg"><g stroke-linecap="round" transform="translate(-58 -59.099319)"><path d="m82.275681 64.507812-.943359.613282-.714844 3.486328c-2.061629.472271-3.47982 1.501412-4.488281 3.195312l-4.785156 2.34375c-1.018192.499036-2.417578 1.159429-3.494141 2.13086-.53828.485714-1.004845 1.060783-1.255859 1.765625-.251014.704844-.252276 1.532829.07422 2.355469l1.134765 2.857421c.000648-.000654.0013-.0013.002-.002l4.867188-1.892578c.489532-.190352.835359.642084.566406.84961l-4.044922 3.121093c-.0087.007-.01788.01353-.02734.01953l-.03516.02148 1.109375 2.5625 9.947266-2.205078c.0031.04974.02341.01655.01758.08398-.03144.363346-.296827 1.09158-1.783203 2.115235-1.693498 1.166297-3.346164 2.596999-4.658203 4.03125-1.312042 1.434253-2.301759 2.831892-2.603516 4.164062-.521878 2.303998-.05273 4.019527-.05273 4.019527l.152344.54883h26.326171l-.65039-1.124998c-1.174677-2.034598-1.335492-3.705331-1.158203-5.699218.177285-1.993886.738796-4.286365.984375-7.265625.25089-3.043737.20805-6.837242-1.144532-10.392578-1.332768-3.503261-4.009927-6.744395-8.763671-8.636719-.584054-1.083362-1.552045-1.823213-2.425782-2.271485-.971092-.498217-1.833984-.714843-1.833984-.714843z"/><g fill="#fff"><path d="m87.316697 81.351562c-.226606.710101-.61369 1.320243-1.085937 1.810547-.723296.75095-1.624688 1.252902-2.496094 1.607422-.697801.300376-1.384805.453425-2.064453.597657.03221.176163.04725.368687.0293.576171-.02733.315927-.121588.653068-.296875 1.00586.387024-.04572 1.079052-.178746 2.185546-.628907.871404-.35452 1.772796-.858424 2.496094-1.609374.723294-.750951 1.251354-1.777457 1.298828-3.025391.0038-.114947-.01896-.229221-.06641-.333985z"/><path d="m87.492478 70.005859c.215291 1.049507 1.376083 1.987698 1.933594 2.839844.338593.463906.622231.977255.873045 1.39844 1.862346 2.789245 2.687224 6.3007 2.925622 9.71852.238397 3.41782-.600254 6.389227-.653557 9.485182-.0533 3.095954.483304 4.08173 2.040442 5.194772-.58133-1.690701-.842258-3.346382-.699219-4.955078.197896-2.225654.751045-4.444983.982422-7.251953.237546-2.881816.166179-6.384521-1.017578-9.496094-1.050437-2.761133-2.915064-5.233016-6.384766-6.933594z" stroke-width=".999994"/><path d="m80.225394 71.628614c-1.318307.471995-2.028073 1.810603-1.382456 2.908193l4.035015-1.854348c-.186344-1.128726-1.334251-1.525838-2.652559-1.053845z"/></g></g></svg>