<svg height="48" viewBox="0 0 48 48" width="48" xmlns="http://www.w3.org/2000/svg"><g stroke-linecap="round" transform="translate(-290 -59.099319)"><path d="m308.08893 64.960938c-.11551-.000015-.23191.0061-.34766.01758h-.002c-.92535.09158-1.7824.547583-2.37305 1.263672-.59202.717747-.87406 1.647887-.7832 2.570313.0911.922433.55015 1.776275 1.26953 2.363281.19251.157094.42643.233014.64453.34375l-.30664 7.03125-4.32422-1.917969c.0489-.433234.15496-.865867.0391-1.292969-.24353-.896064-.83985-1.661844-1.64648-2.121093h-.002c-.80781-.459899-1.77092-.579793-2.66797-.335938-.89709.243408-1.67.834305-2.13477 1.640625-.4642.805489-.58841 1.767788-.3457 2.66211.2432.894802.8393 1.661514 1.64648 2.121093.70067.398893 1.51711.494108 2.31055.365235 2.86758 3.894229 4.10627 9.159835 3.81641 11.984375l-.0744.525437s-.62379 4.69466-2.02539 7.417969l-.5625 1.093751h27.5625l-.5625-1.093751c-1.39989-2.718646-2.02735-7.419922-2.02735-7.419922l-.0744-.523484c-.28986-2.82454.94883-8.090146 3.81641-11.984375.79344.128873 1.61183.03366 2.3125-.365235.80719-.459579 1.40133-1.226291 1.64453-2.121093.24271-.894322.1185-1.856621-.3457-2.66211-.46477-.80632-1.23768-1.397217-2.13477-1.640625-.89705-.243855-1.86016-.123963-2.66797.335938-.80663.459249-1.4049 1.225029-1.64843 2.121093-.11591.427071-.01.859737.0391 1.292969l-4.32422 1.917969-.30859-7.03125c.2183-.110622.45377-.184755.64648-.341797.71977-.586527 1.17973-1.440942 1.27148-2.363281.0915-.922383-.18972-1.852178-.78124-2.570313-.59056-.716968-1.44898-1.173863-2.375-1.265625-.92596-.0922-1.85731.186053-2.57813.773438-.72128.587748-1.18165 1.44489-1.27344 2.367187-.0896.902948.19066 1.805444.75586 2.515625l-3.16601 6.691407-3.16797-6.691407c.56492-.709605.84472-1.61129.75586-2.513672-.0912-.922286-.54863-1.778941-1.26953-2.367187-.63037-.514392-1.42193-.792861-2.23047-.792969z" stroke-width="1.5"/><g fill="#fff"><path d="m314.10553 88.425781c-3.76945-.0088-6.8099.679907-9.6875 1.347657v1.541015c2.97609-.689903 5.96177-1.397322 9.68359-1.388672 3.70855.0087 6.59964.713731 9.48242 1.386719v-1.541016c-2.77992-.650852-5.73023-1.336923-9.47851-1.345703z"/><path d="m303.93164 94.378906c-.20822 1.116533-.56536 2.282161-.88672 3.279297l4.34375-2.373047z"/><path d="m324.10352 94.369141-3.48829.916015 4.37891 2.394532c-.25734-.755343-.49084-1.527567-.66602-2.28711-.0907-.393446-.16218-.724702-.2246-1.023437z"/><path d="m314.00195 93.144531-4.04687 1.798828 4.04687 1.845703 4.04493-1.845703z"/></g></g></svg>