<svg height="48" viewBox="0 0 48 48" width="48" xmlns="http://www.w3.org/2000/svg"><path d="m24.000001 67.664039c-3.310898-.000207-6.012508 2.699386-6.012301 6.010283.0018 1.737883.924141 3.193548 2.182989 4.315541l-2.800361.661756-2.245533 4.642385h4.428523c-.04328 1.064825-.192282 2.455555-.615353 3.841416-.533374 1.747181-1.478249 3.434053-3.135273 4.493085-5.118736 3.271474-5.689493 8.207396-5.689493 8.207396l-.0928.857459h27.959219l-.0928-.857459s-.570757-4.935922-5.689492-8.207396c-1.657039-1.059031-2.601921-2.745902-3.135282-4.493085-.423064-1.385862-.572062-2.776582-.615353-3.841416h4.428524l-2.245534-4.642385-2.800361-.661756c1.258849-1.121993 2.181223-2.577657 2.182989-4.315541.000208-3.310897-2.701403-6.01049-6.0123-6.010283z" stroke-linecap="round" transform="translate(0 -59.099319)"/></svg>