<svg height="48" viewBox="0 0 48 48" width="48" xmlns="http://www.w3.org/2000/svg"><g transform="translate(-232 -59.099319)"><path d="m252.32416 64.751954v.5 6.78125h3.07812c-1.94835.180592-3.67216 1.255937-5 2.4375-1.45533-1.122636-3.0317-1.841797-4.61328-1.841797-2.47611 0-4.57319 1.178031-6.0332 2.791015-1.46001 1.612986-2.32714 3.659783-2.37891 5.582032-.12984 4.822792 2.61768 9.723111 7.33789 11.791015-.20272 1.27793-.80823 4.620081-1.93359 6.806641l-.5625 1.09375h27.5625l-.5625-1.09375c-1.1238-2.182463-1.73038-5.526677-1.93359-6.806641 4.72021-2.067904 7.46774-6.968223 7.33789-11.791015-.0517-1.922259-.91888-3.970638-2.37891-5.583985-1.46003-1.613345-3.55685-2.790487-6.0332-2.789062-1.58658.000899-3.17297.724728-4.63867 1.853515-1.33238-1.192456-3.06773-2.267134-5.02344-2.449218h3.125v-7.28125z" stroke-linecap="round" stroke-width="1.5"/><g fill="#fff"><g stroke-linecap="round"><path d="m245.70228 94.319265-.96742 3.50912 4.65196-2.54165z"/><path d="m256.00015 93.144775-4.04635 1.79945 4.04635 1.84506 4.04635-1.84506z"/><path d="m266.29802 94.319265.96742 3.50912-4.65196-2.54165z"/><path d="m245.78905 73.904295c-2.02495-.001-3.74424.95611-4.98046 2.32227-1.24849 1.37973-1.97247 3.14202-2.01367 4.67187-.11514 4.27673 2.37628 8.71093 6.54883 10.52394l.22265.0977.23829-.0527c.7434-.16373 4.55604-1.06346 10.16601-1.06495 5.62127-.002 9.4892.90335 10.22852 1.06495l.23633.0527.22265-.0977c4.1716-1.81351 6.66201-6.24784 6.54687-10.52394-.0412-1.5298-.76515-3.29212-2.01367-4.67187-1.23624-1.36617-2.95551-2.32343-4.98046-2.32227-.98868.00058-2.03305.44813-3.11719 1.1543s-2.19166 1.69612-3.16212 2.89063c-1.32414 1.62985-3.00729 4.33328-3.95898 7.39843-.9457-3.06567-2.61707-5.77118-3.93163-7.40039-.96364-1.19427-2.06372-2.1829-3.14258-2.88867s-2.1212-1.15372-3.10939-1.1543zm0 1.5c.47911.00028 1.35622.30118 2.28712.91016s1.93091 1.50099 2.79688 2.57422c1.65323 2.04891 3.98994 6.10877 4.25194 10.0664-4.95223.0856-8.37734.78889-9.33398.99464-3.46252-1.59254-5.5931-5.409-5.4961-9.01221.0284-1.05305.62633-2.59733 1.62695-3.70313 1.01291-1.11937 2.30837-1.83095 3.86719-1.83008zm20.42189 0c1.55879-.00089 2.85426.7107 3.86717 1.83008 1.00063 1.1058 1.59859 2.65009 1.62696 3.70313.097 3.60278-2.03251 7.41933-5.49413 9.01221-.9551-.20394-4.42086-.91107-9.39258-.99464.26475-3.95569 2.61197-8.01069 4.27734-10.06054.87252-1.07395 1.87948-1.96784 2.81641-2.57813.93692-.61028 1.82025-.91183 2.29883-.91211z"/></g><g stroke-miterlimit="3"><path d="m255.18358 73.613435c-.83492.13879-1.68014.4961-2.55663 1.07031-.1506.0987-.26941.19148-.38867.27734l-.71681.51563.62891.6289c1.16368 1.2081 2.19769 2.65575 2.99805 4.19532.0518.0996.10402.23192.1875.40039l.67383 1.35937.66992-1.35937c.79987-1.62122 1.86426-3.20551 3.15039-4.56641l.59179-.62695-.70312-.5c-.62263-.4425-1.35477-.9159-2.04688-1.16016-.82472-.29107-1.65724-.37252-2.48828-.23437zm.2461 1.48047c.59114-.0983 1.12193-.0509 1.74218.16796.24217.0855.6613.36754 1.04297.60157-.8407.98449-1.54349 2.04539-2.16601 3.14062-.65519-1.15194-1.43216-2.21789-2.28906-3.19922.60286-.35171 1.1751-.62868 1.66992-.71093z"/><path d="m253.32422 65.750975v.94531l1.7168 1.69727-1.7168 1.69727v.94335h.96484l1.71094-1.6914 1.71094 1.6914h.96289v-.94335l-1.7168-1.69727 1.7168-1.69727v-.94531h-.96289l-1.71094 1.69141-1.71094-1.69141z"/></g></g></g></svg>