<svg height="48.000004" viewBox="0 0 48 48.000004" width="48" xmlns="http://www.w3.org/2000/svg"><g stroke-linecap="round" transform="translate(-116 -59.099316)"><path d="m137.28729 67.283203c.00079.648749.50111 1.442174.88867 1.933594-1.14682 1.024409-3.69048 3.057912-5.30664 5.025391-1.79692 2.187507-3.3359 4.64243-3.33594 7.080078v.002c.0101 2.578077 1.56488 5.042984 3.51172 6.789062l-.006.02734c-.39565 1.724968-.96879 2.98533-1.7832 4.486328l-.59961 1.107422h6.32422c-.17502.28686-.36965.874389-.58203 1.105469-.46425.505139-.95242.790995-1.49805.791015-1.25516.00003-4.60195-.04533-5.82268.171835-1.2207.21715-2.43572.726915-3.52343 1.777344-.67246.649429-1.12854 1.25194-1.3418 2.199219l-.20508.91406 12.14885.00004h.002c1.08821-.007 2.02764-.55149 2.7793-1.103513.50425-.37032.75531-.639845 1.05469-.927735.29937.28789.55044.557405 1.05469.927735.75166.552023 1.69108 1.096633 2.77929 1.103513h.002l12.16508-.00004-.20507-.91406c-.21327-.947259-.66935-1.54978-1.3418-2.199219-1.08771-1.050429-2.30272-1.560194-3.52344-1.777344-1.22073-.217149-4.58375-.171805-5.83891-.171835-.54563-.00002-1.03379-.285876-1.49804-.791015-.21238-.23108-.40701-.818609-.58203-1.105469h6.32421l-.5996-1.107422c-.81441-1.500978-1.38754-2.76135-1.78321-4.486328l-.006-.02344c1.9489-1.746129 3.5057-4.213032 3.51563-6.792969v-.002c-.00004-2.437648-1.53902-4.892571-3.33594-7.080078-.40075-.487871-.85857-.979447-1.33789-1.458985l-5.00977 6.269531c-.39029.515925-1.12474.616891-1.64062.226563-.51546-.389923-.61782-1.122744-.22852-1.638672l5.20118-6.427734c-.90976-.810661-1.75454-1.516874-2.29102-1.996094.38756-.49142.88787-1.284835.88867-1.933594-.00086-1.534318-1.21954-2.792968-2.70694-2.79296-1.4874.000009-2.70593 1.258649-2.70694 2.792967z" stroke-width="1.5"/><path d="m140 87.78125c-1.08485 0-2.06581.04411-2.94727.111328-1.24229.136059-2.09932.318281-2.51953.417969l-.42384 1.533203c1.29047-.251704 3.19807-.515625 5.89062-.515625 2.70367 0 4.61562.266896 5.90625.519531l-.4122-1.53125c-.40714-.0976-1.27471-.284584-2.54492-.423828-.88186-.0674-1.86348-.111328-2.94911-.111328z" fill="#fff" stroke-width="1.52285"/></g></svg>