<svg height="48" viewBox="0 0 48 48" width="48" xmlns="http://www.w3.org/2000/svg"><g stroke-linecap="round" transform="translate(-290)"><path d="m324.44768 33.17354c-.5827-3.115323.74046-9.086439 4.11328-13.421875.0695.0252.13946.05092.21093.07031.70062.190452 1.47502.09023 2.10352-.267578.62845-.357815 1.10405-.970924 1.29297-1.666016.18866-.695158.0896-1.465233-.27149-2.091797-.36116-.626574-.98093-1.100892-1.68164-1.291016-.70062-.190457-1.47309-.09413-2.10156.263672-.62847.357814-1.10601.970924-1.29492 1.666016-.1408.518807-.12051 1.080072.0488 1.591797l-5.75781 2.554687-.37681-8.586558.00019-.002c.34166-.104553.66434-.272332.94049-.497364.56062-.45684.92756-1.138899.99887-1.8556661.0711-.7167891-.15412-1.4615914-.61391-2.0197923-.45979-.5581998-1.14715-.9247315-1.86966-.9963269-.72246-.071936-1.47045.1520185-2.03107.6088601-.56063.4568397-.92792 1.1427884-.99925 1.8595537-.0711.7167909.15449 1.4577035.6143 2.0159055.0871.105695.18262.203945.28471.295213l-4.05729 8.576556-4.05738-8.575298c.10215-.0912.19776-.189386.28491-.295022.46018-.557893.68624-1.298654.61565-2.0154924-.0709-.7168132-.43768-1.4030084-.99801-1.8602245-.5603-.457218-1.30814-.6816752-2.03066-.6102241l.00006-.0000059c-.72255.07111-1.41016.43718-1.87032.9950709-.46017.5578919-.68587 1.3025428-.61526 2.0193794.0708.7168146.4373 1.3991206.99762 1.8563376.27599.225216.59856.393213.94015.497995l.0002.002-.37626 8.587103-5.75781-2.554687c.16931-.511725.18963-1.07299.0488-1.591797-.18891-.695092-.66645-1.308202-1.29492-1.666016-.62847-.357801-1.40094-.454129-2.10156-.263672-.70071.190124-1.32048.664442-1.68164 1.291016-.36109.626564-.46015 1.396639-.27149 2.091797.18892.695092.66452 1.308201 1.29297 1.666016.6285.357807 1.4029.45803 2.10352.267578.0715-.01939.14143-.04511.21093-.07031 3.37282 4.335436 4.69598 10.306552 4.11328 13.421875" fill="#fff" stroke="#000" stroke-width="1.5"/><path d="m314.10176 31.567602c-4.04432-.0094-7.20471.848001-10.54862 1.605938 0 0-.58885 4.726007-2.10376 7.669451h25.10333c-1.5135-2.939295-2.10382-7.67026-2.10382-7.67026-3.25666-.737319-6.3028-1.595657-10.34713-1.605129z" fill="#fff" stroke="#000" stroke-width="1.5"/><path d="m303.70331 35.218906-.96742 3.509118 4.65196-2.541653z"/><path d="m314.00118 34.044419-4.04635 1.799449 4.04635 1.845052 4.04635-1.845052z"/><path d="m324.29905 35.218906.96742 3.509118-4.65196-2.541653z"/></g></svg>