<svg height="48" viewBox="0 0 48 48" width="48" xmlns="http://www.w3.org/2000/svg"><g fill="#fff" stroke="#000" stroke-linecap="round" stroke-width="1.5" transform="translate(-116)"><path d="m138.20742 33.884766c-.55383 1.357765-1.67656 3.034595-3.29884 3.083984l-5.25333.159934c-1.48166.04511-2.60016.632703-3.57936 1.578347-.52846.510353-.94799 1.324491-1.13084 2.136719h11.21744c1.63909-.01036 3.31785-1.782563 3.83789-2.279297.52004.496734 2.1988 2.268937 3.83789 2.279297h11.21745c-.18286-.812228-.60239-1.626351-1.13085-2.136719-.97921-.945644-2.0977-1.533239-3.57936-1.578347l-5.25333-.159934c-1.62228-.04939-2.74501-1.726219-3.29883-3.083984"/><path d="m145.76172 29.208984c2.16653-1.567216 3.93922-4.387033 3.94922-6.986328-.00004-2.467577-1.95421-5.309488-4.10742-7.693359l-4.45508 5.537109c-.49982.660721-1.44091.790891-2.10156.291016-.66013-.499357-.79152-1.438884-.29297-2.09961l4.73242-5.890624c-.78482-.746635-1.52045-1.39725-2.10742-1.894532.65432-.45277 1.04587-1.1978322 1.04687-1.9941404-.00091-1.3407406-1.08657-2.4272764-2.42578-2.4277344-1.33921.000458-2.42487 1.0869938-2.42578 2.4277344.001.7963082.39255 1.5413704 1.04687 1.9941404-2.66784 2.260214-8.33197 7.548795-8.33203 11.75.01 2.599295 1.78268 5.419112 3.94922 6.986328"/><path d="m133.77783 29.209482c-.41348 1.802694-1.02488 3.147079-1.85363 4.674506h16.15237c-.82878-1.527427-1.44016-2.871812-1.85365-4.674506 0 0-2.65095-.726192-6.22254-.726192-3.57158 0-6.22255.726192-6.22255.726192z"/></g></svg>