<svg height="48" viewBox="0 0 48 48" width="48" xmlns="http://www.w3.org/2000/svg"><g transform="translate(-232)"><g stroke-linecap="round"><g fill="#fff" stroke="#000" stroke-width="1.5"><path d="m261.50444 16.346028c-1.41705-1.387579-3.41154-2.692129-5.53131-2.692522-2.09497-.000045-4.06454 1.287992-5.4781 2.652618l5.50496 9.635936z"/><path d="m266.61153 33.174299c4.64877-1.832835 7.38679-6.599521 7.26154-11.250915-.0917-3.408377-3.18205-7.645979-7.66156-7.643402-4.4795.0026-10.23812 7.319048-10.23812 12.372206l-.002 5.465175.002-5.465175c0-5.053158-5.70532-12.372206-10.18482-12.372206h-.00008c-4.47951 0-7.56978 4.235025-7.66157 7.643402-.12524 4.651394 2.61279 9.41808 7.26156 11.250915"/><path d="m256.10058 31.568361c-4.04432-.0094-7.20471.848001-10.54862 1.605938 0 0-.58885 4.726007-2.10376 7.669451h25.10333c-1.5135-2.939295-2.10382-7.67026-2.10382-7.67026-3.25666-.737319-6.3028-1.595657-10.34713-1.605129z"/></g><path d="m245.70213 35.219665-.96742 3.509118 4.65196-2.541653z"/><path d="m256 34.045178-4.04635 1.799449 4.04635 1.845052 4.04635-1.845052z"/><path d="m266.29787 35.219665.96742 3.509118-4.65196-2.541653z"/></g><g stroke="#000" stroke-miterlimit="3"><path d="m252.82431 6.152718h6.34948v6.281495h-6.34948z" fill="#fff"/><path d="m252.82431 6.152718 6.34948 6.281495m0-6.281495-6.34948 6.281495" fill="none" stroke-width="1.2"/></g></g></svg>