<svg height="48" viewBox="0 0 48 48" width="48" xmlns="http://www.w3.org/2000/svg"><g fill="#fff" stroke="#000" stroke-linecap="round" stroke-width="1.5"><path d="m20.345472 23.419666c.0076 2.271636-.408143 7.385486-4.125208 9.761127-4.849432 3.099356-5.337632 7.638229-5.337632 7.638229h26.234736s-.4882-4.538873-5.337631-7.638229c-3.717066-2.375641-4.132741-7.489491-4.125209-9.761127"/><path d="m23.999999 9.3382905c-2.892172-.0001808-5.236788 2.3444345-5.236607 5.2366075.0021 2.026455 1.173205 3.869795 3.006802 4.732609l-3.863784.913039-1.546356 3.198344h15.279891l-1.546356-3.198344-3.863784-.913039c1.833597-.862814 3.004739-2.706154 3.006802-4.732609.000181-2.892173-2.344435-5.2367883-5.236608-5.2366075z" stroke-miterlimit="3"/></g></svg>