<svg height="48" viewBox="0 0 48 48" width="48" xmlns="http://www.w3.org/2000/svg"><g stroke-linecap="round" transform="translate(-58)"><path d="m81.274147 10.04275c-2.40381.392094-3.661605 1.35323-4.711433 3.283609l-4.887468 2.395436c-2.042804 1.001215-5.380877 2.601081-4.309412 5.300792l.97072 2.445874 4.29013-1.667969c.614864-.247747 1.589843 1.07858 1.099713 1.498459l-3.798573 2.930728.755073 1.741066 9.98366-2.2146s1.368812 1.497942-1.817877 3.692587c-3.289504 2.265452-6.472542 5.605934-6.956812 7.743853-.48426 2.137918-.0615 3.651165-.0615 3.651165h24.45704c-2.50558-4.339791-.753862-7.568405-.273096-13.40088.49202-5.969018-.213209-14.748065-9.621336-18.3649165-.844018-2.0711238-3.98233-2.8621831-3.98233-2.8621831l-.405947.2642707z" fill="#fff" stroke="#000" stroke-width="1.5"/><path d="m87.317117 20.751214c-.226606.710101-.61369 1.320242-1.085938 1.810547-.723296.75095-1.624687 1.252901-2.496094 1.607422-.996169.428811-1.980514.567161-2.93398.790078l.23092 1.421189s.813765.04855 2.556576-.660486c.871404-.354521 1.772795-.858424 2.496094-1.609375.723294-.750951 1.251354-1.777456 1.298828-3.025391.0038-.114947-.01896-.22922-.06641-.333984z"/><path d="m80.664628 13.069886c-1.387661.496826-2.134767 1.905856-1.455185 3.061189l4.247291-1.951903c-.196148-1.188106-1.404444-1.60611-2.792106-1.109286z"/></g></svg>