<svg height="48.000023" viewBox="0 0 48 48.000023" width="48" xmlns="http://www.w3.org/2000/svg"><g transform="translate(-116 -117.31046)"><path d="m137.30432 125.49432c.00079.64874.48353 1.44217.87109 1.93359-1.02728 1.0241-3.682 3.05907-5.29883 5.02735-1.79692 2.18753-3.33588 4.64243-3.33593 7.08008v.002c.01 2.60151 1.49558 5.21029 3.4707 6.95703-.39416 1.65161-.95443 2.88467-1.7461 4.34375l-.60156 1.10742h6.31641c-.17502.28686-.36965.87439-.58203 1.10547-.46425.50514-.95242.791-1.49805.79102-1.25516.00003-4.60154-.0453-5.82227.17187-1.22068.21715-2.43572.72692-3.52343 1.77735-.67246.64941-1.12854 1.25195-1.3418 2.19921l-.20508.91407h12.14844.002c1.08821-.007 2.02764-.55149 2.7793-1.10352.50426-.37032.75533-.63984 1.05469-.92773.29937.28789.55044.5574 1.05469.92773.75164.55203 1.69108 1.09664 2.77929 1.10352h.002 12.16602l-.20508-.91407c-.21327-.94724-.66936-1.54979-1.34179-2.19921-1.08771-1.05043-2.30272-1.5602-3.52344-1.77735-1.22073-.21714-4.58469-.17184-5.83985-.17187-.54563-.00002-1.03379-.28588-1.49804-.79102-.21238-.23108-.40701-.81861-.58203-1.10547h6.33398l-.60156-1.10742c-.79168-1.45907-1.35194-2.69214-1.7461-4.34375 1.97568-1.74675 3.46264-4.35503 3.47266-6.95703v-.002c-.00005-2.43765-1.53902-4.89255-3.33594-7.08008-1.6168-1.96824-4.26958-4.00325-5.29687-5.02735.38756-.49142.88787-1.28483.88867-1.93359-.00086-1.53432-1.21963-2.79298-2.70708-2.79297s-2.70607 1.25865-2.70708 2.79297z" stroke-linecap="round" stroke-width="1.5"/><path d="m139.99973 145.9926c-1.08485 0-2.06581.0441-2.94727.11132-1.24229.13606-2.09932.31828-2.51953.41797l-.42384 1.53321c1.29047-.25171 3.19807-.51563 5.89062-.51563 2.70367 0 4.61562.2669 5.90625.51953l-.4122-1.53125c-.40714-.0976-1.27471-.28458-2.54492-.42383-.88197-.0674-1.86359-.11132-2.94922-.11132z" fill="#fff" stroke-linecap="round" stroke-width="1.52285"/><path d="m143.277 136.95523h-6.55415m3.27884-3.41477v8.04489" fill="none" stroke="#fff" stroke-miterlimit="3" stroke-width="1.7"/></g></svg>