<svg height="48" viewBox="0 0 48 48" width="48" xmlns="http://www.w3.org/2000/svg"><g stroke="#000" transform="translate(-116 61.374809)"><g fill="#fff" stroke-linecap="round" stroke-width="1.5"><path d="m138.20742-27.490723c-.55383 1.357765-1.67656 3.034595-3.29884 3.083984l-5.25333.159934c-1.48166.04511-2.60016.632703-3.57936 1.578347-.52846.510353-.94799 1.324491-1.13084 2.136719h11.21744c1.63909-.01036 3.31785-1.782563 3.83789-2.279297.52004.496734 2.1988 2.268937 3.83789 2.279297h11.21745c-.18286-.812228-.60239-1.626351-1.13085-2.136719-.97921-.945644-2.0977-1.533239-3.57936-1.578347l-5.25333-.159934c-1.62228-.04939-2.74501-1.726219-3.29883-3.083984"/><path d="m145.76368-32.165727c2.16653-1.567218 3.93922-4.387032 3.94922-6.986329-.00006-4.201209-5.66418-9.489784-8.33204-11.75.65432-.452771 1.04588-1.197831 1.04688-1.99414-.00091-1.340742-1.08657-2.427276-2.42578-2.427734-1.33921.000458-2.42487 1.086992-2.42578 2.427734.001.796309.39255 1.541369 1.04687 1.99414-2.66785 2.260216-8.33197 7.548791-8.33203 11.75.01 2.599297 1.78268 5.419111 3.94922 6.986329"/><path d="m133.77783-32.165228c-.41348 1.802694-1.02488 3.147079-1.85363 4.674505h16.15237c-.82878-1.527426-1.44016-2.871811-1.85365-4.674505 0 0-2.65095-.726192-6.22254-.726192-3.57158 0-6.22255.726192-6.22255.726192z"/></g><path d="m143.27727-41.730244-6.55415.000001m3.27884-3.414772v8.044889" fill="none" stroke-miterlimit="3" stroke-width="1.7"/></g></svg>